<?xml version="1.0" standalone="no"?>
<!DOCTYPE svg PUBLIC "-//W3C//DTD SVG 20010904//EN"
 "http://www.w3.org/TR/2001/REC-SVG-20010904/DTD/svg10.dtd">
<svg version="1.0" xmlns="http://www.w3.org/2000/svg"
 width="1024.000000pt" height="1024.000000pt" viewBox="0 0 1024.000000 1024.000000"
 preserveAspectRatio="xMidYMid meet">

<g transform="translate(0.000000,1024.000000) scale(0.100000,-0.100000)"
fill="#000000" stroke="none">
<path d="M0 5120 l0 -5120 5120 0 5120 0 0 5120 0 5120 -5120 0 -5120 0 0
-5120z m6200 3510 c0 -7 277 -10 810 -10 l810 0 0 -170 0 -170 -35 0 c-32 0
-35 -2 -35 -30 l0 -30 520 0 520 0 0 -145 0 -145 230 0 230 0 0 -440 0 -440
65 0 65 0 0 -540 0 -540 -45 0 -45 0 0 -880 c0 -580 -3 -880 -10 -880 -6 0
-10 -75 -10 -205 l0 -205 -360 0 -360 0 0 -240 0 -240 50 0 50 0 0 -170 c0
-163 -1 -170 -20 -170 -11 0 -20 -7 -20 -15 0 -8 9 -15 20 -15 19 0 20 -7 20
-220 l0 -220 -25 0 c-23 0 -25 -4 -25 -45 0 -41 2 -45 25 -45 l25 0 0 -215 0
-215 -295 0 -295 0 0 50 0 50 -45 0 c-41 0 -45 -2 -45 -25 l0 -25 -365 0 -365
0 0 -25 0 -25 -120 0 -120 0 0 25 c0 18 -5 25 -20 25 -15 0 -20 -7 -20 -25 l0
-25 -265 0 -265 0 0 200 0 200 -55 0 -55 0 0 -220 0 -220 -338 0 -339 0 -12
27 -12 26 -42 -41 c-34 -34 -93 -64 -322 -165 -154 -68 -331 -141 -393 -162
l-114 -37 7 -49 c4 -30 3 -49 -3 -49 -5 0 -297 99 -649 220 -577 198 -646 220
-705 220 l-64 0 -185 380 -184 380 -322 0 -323 0 0 330 0 330 278 0 278 0 57
58 57 58 0 942 0 942 -230 0 -230 0 0 50 0 50 -130 0 -130 0 0 -50 0 -50 -305
0 -305 0 0 455 0 455 -60 0 -60 0 0 223 0 223 30 29 c30 28 30 30 30 137 l0
108 -250 0 -250 0 0 429 0 428 41 52 41 51 204 0 204 0 0 295 0 295 640 0 640
0 0 25 0 25 310 0 310 0 0 -45 0 -45 510 0 510 0 0 -200 0 -200 490 0 490 0 0
270 0 270 355 0 c230 0 355 -4 355 -10z"/>
<path d="M6210 7875 l0 -405 -580 0 -580 0 0 -498 0 -497 83 -155 84 -155 166
-3 c109 -2 167 1 167 8 0 7 145 10 435 10 l434 0 166 81 165 82 0 183 c0 157
-2 184 -15 184 -13 0 -15 31 -15 220 l0 220 85 0 85 0 0 45 0 45 -75 0 -75 0
0 85 0 85 55 0 55 0 0 265 0 265 -60 0 -60 0 0 140 0 140 425 0 425 0 0 30 0
30 -685 0 -685 0 0 -405z"/>
<path d="M3420 8005 l0 -75 295 0 295 0 0 75 0 75 -295 0 -295 0 0 -75z"/>
<path d="M2010 7315 l0 -395 360 0 360 0 0 395 0 395 -360 0 -360 0 0 -395z
m710 -2 l0 -386 -232 6 c-128 4 -286 7 -350 7 l-118 0 0 380 0 380 350 0 350
0 0 -387z"/>
<path d="M7587 7630 c-29 -9 -90 -56 -196 -151 l-61 -56 0 -446 0 -447 105 0
105 0 0 -825 0 -825 -935 0 -935 0 0 130 0 130 -192 -1 c-106 -1 -183 -4 -170
-6 21 -4 22 -8 22 -114 l0 -109 75 0 75 0 0 -315 0 -315 -90 0 c-53 0 -90 -4
-90 -10 0 -6 48 -10 125 -10 l125 0 0 -220 0 -220 285 0 285 0 0 105 0 105
660 0 660 0 0 -130 0 -130 40 0 40 0 0 415 0 415 155 0 155 0 0 95 0 95 358 0
358 0 32 33 32 33 0 1132 0 1132 25 0 c25 0 26 1 23 64 l-3 63 -155 166 -155
166 -262 1 -263 0 0 30 0 30 -102 -1 c-57 0 -116 -5 -131 -9z"/>
<path d="M3440 7450 l0 -60 45 0 c33 0 45 4 45 15 0 9 9 15 25 15 21 0 25 5
25 30 0 25 -4 30 -25 30 -16 0 -25 6 -25 15 0 11 -12 15 -45 15 l-45 0 0 -60z"/>
<path d="M3440 6605 l0 -345 -355 0 -355 0 0 -82 c0 -77 3 -92 52 -210 l53
-128 288 0 287 0 0 -245 0 -245 95 0 95 0 0 -75 0 -75 95 0 95 0 0 -105 0
-105 50 0 50 0 0 85 0 85 75 0 75 0 0 40 0 40 -75 0 -75 0 0 350 0 350 55 0
55 0 0 405 0 405 160 0 160 0 0 100 0 100 -440 0 -440 0 0 -345z"/>
<path d="M1930 6070 l0 -190 130 0 130 0 0 170 0 170 160 0 c153 0 160 1 160
20 0 20 -7 20 -290 20 l-290 0 0 -190z"/>
<path d="M4300 4785 l0 -375 -60 0 c-47 0 -60 -3 -60 -15 0 -12 13 -15 60 -15
l60 0 0 -55 0 -55 120 0 120 0 0 -60 0 -60 45 0 45 0 0 60 0 60 170 0 c107 0
170 4 170 10 0 6 -35 10 -85 10 l-85 0 0 145 0 145 45 0 c41 0 45 2 45 25 0
23 -4 25 -40 25 l-40 0 0 255 0 255 85 0 c50 0 85 4 85 10 0 6 -120 10 -340
10 l-340 0 0 -375z"/>
<path d="M3780 4585 l0 -205 -165 0 -165 0 0 -315 0 -315 155 0 155 0 0 -135
0 -135 -70 0 -70 0 0 -420 0 -420 70 0 70 0 0 -100 0 -100 355 0 355 0 0 -45
0 -45 106 0 106 0 74 58 73 57 1 78 0 77 -30 0 -30 0 0 400 0 400 35 0 35 0 0
108 0 107 -40 33 -39 32 -285 0 -286 0 0 70 0 70 -60 0 -60 0 0 -70 0 -70
-105 0 -105 0 0 345 c0 338 0 345 20 345 11 0 20 5 20 10 0 6 -20 10 -45 10
l-45 0 0 190 c0 162 -2 190 -15 190 -13 0 -15 -29 -15 -205z"/>
<path d="M8170 3755 l0 -435 -315 0 c-226 0 -315 3 -315 11 0 8 -73 9 -270 4
l-270 -7 0 116 0 116 -50 0 -50 0 0 -135 0 -135 -130 0 -130 0 0 -125 0 -125
100 0 100 0 0 -215 0 -215 -55 0 -55 0 0 -150 0 -150 115 0 115 0 0 55 c0 48
2 55 20 55 17 0 20 7 20 45 0 38 -3 45 -20 45 -19 0 -20 7 -20 220 l0 220 630
0 630 0 0 580 0 580 385 0 385 0 0 40 0 40 -410 0 -410 0 0 -435z"/>
<path d="M5542 2763 c59 -2 158 -2 220 0 62 1 14 3 -107 3 -121 0 -172 -2
-113 -3z"/>
<path d="M5212 2323 l-2 -193 233 2 232 3 -227 2 -228 3 -3 188 -2 187 -3
-192z"/>
<path d="M5913 2440 c0 -41 2 -58 4 -37 2 20 2 54 0 75 -2 20 -4 3 -4 -38z"/>
<path d="M7250 2465 l0 -45 45 0 45 0 0 45 0 45 -45 0 -45 0 0 -45z"/>
<path d="M7620 2465 l0 -45 45 0 45 0 0 45 0 45 -45 0 -45 0 0 -45z"/>
<path d="M7970 2465 l0 -45 45 0 45 0 0 45 0 45 -45 0 -45 0 0 -45z"/>
</g>
</svg>
